<svg width="16" height="15" viewBox="0 0 16 15" fill="none" xmlns="http://www.w3.org/2000/svg">
<path d="M7.8879 10.4835L13.8435 0.572929C13.9477 0.398437 14.0715 0.259952 14.208 0.165451C14.3444 0.0709499 14.4907 0.0222971 14.6385 0.0222971C14.7863 0.0222971 14.9326 0.0709499 15.0691 0.165451C15.2055 0.259952 15.3294 0.398437 15.4335 0.572929C15.6432 0.926224 15.7608 1.40278 15.7608 1.89933C15.7608 2.39588 15.6432 2.87243 15.4335 3.22573L8.68568 14.4546C8.48102 14.7941 8.20562 14.9893 7.91672 14.9996C7.62782 15.0099 7.34765 14.8345 7.13444 14.5099L0.3478 3.22803C0.239487 3.05567 0.152939 2.84907 0.0932296 2.62033C0.0335204 2.39159 0.00185142 2.14532 7.87782e-05 1.89595C-0.00169386 1.64658 0.0264654 1.39913 0.0829064 1.1681C0.139347 0.937075 0.222935 0.727122 0.328768 0.550548C0.434601 0.373975 0.560551 0.234333 0.699236 0.139809C0.83792 0.045285 0.986548 -0.00221934 1.13641 7.9626e-05C1.28627 0.00237859 1.43435 0.0544345 1.57196 0.153197C1.70957 0.25196 1.83395 0.395442 1.93781 0.575232L7.8879 10.4835Z" fill="black"/>
</svg>
